<?xml version="1.0" encoding="UTF-8"?>
<svg width="30px" height="25px" viewBox="0 0 40 36" version="1.1" xmlns="http://www.w3.org/2000/svg" xmlns:xlink="http://www.w3.org/1999/xlink">
    <title>Methodology</title>
    <g id="Dashboard-Wires---fourth-pass" stroke="none" stroke-width="2" fill="none" fill-rule="evenodd">
        <g id="Desktop-HD" transform="translate(-1359.000000, -67.000000)" fill="#EBEBEB" fill-rule="nonzero">
            <g id="methodology" transform="translate(1359.000000, 67.000000)">
                <path d="M38.2860963,3.60177995 L35.6149733,3.60177995 L35.6149733,0.900444987 C35.6149733,0.403142952 35.2163391,0 34.7245989,0 L34.2794118,0 C28.949442,0.0177942978 23.778332,1.83706063 19.5882353,5.16855422 C15.4021519,1.82964737 10.2284314,0.00946263867 4.89705882,0 L4.45187166,0 C3.96013149,0 3.56149733,0.403142952 3.56149733,0.900444987 L3.56149733,3.60177995 L0.890374332,3.60177995 C0.398634167,3.60177995 0,4.0049229 0,4.50222493 L0,33.3164645 C0,33.8137665 0.398634167,34.2169095 0.890374332,34.2169095 L13.1775401,34.2169095 C14.6278395,34.2178093 16.0652138,34.4926557 17.4157219,35.02731 L19.1964706,35.927755 L19.1964706,35.927755 C19.1964706,35.927755 19.1964706,35.927755 19.1964706,35.927755 C19.4119767,36.0240817 19.657649,36.0240817 19.8731551,35.927755 C19.8731551,35.927755 19.8731551,35.927755 19.8731551,35.927755 L19.8731551,35.927755 L21.6539037,35.0453189 C23.0386744,34.4982224 24.5122407,34.2172768 25.9989305,34.2169095 L38.2860963,34.2169095 C38.7778364,34.2169095 39.1764706,33.8137665 39.1764706,33.3164645 L39.1764706,4.50222493 C39.1764706,4.0049229 38.7778364,3.60177995 38.2860963,3.60177995 Z M20.4786096,33.2804467 L20.4786096,6.7353285 C24.2673831,3.64029345 28.9648887,1.90472732 33.8342246,1.80088997 L33.8342246,28.8142396 C29.0421675,28.9262737 24.3920654,30.481299 20.4786096,33.2804467 L20.4786096,33.2804467 Z M5.34224599,1.80088997 C10.2098235,1.91416921 14.9044134,3.64865805 18.697861,6.7353285 L18.697861,33.2804467 C14.7844052,30.481299 10.1343031,28.9262737 5.34224599,28.8142396 L5.34224599,1.80088997 Z M1.78074866,32.4160195 L1.78074866,5.40266992 L3.56149733,5.40266992 L3.56149733,29.7146846 C3.56149733,30.2119866 3.96013149,30.6151295 4.45187166,30.6151295 L4.84363636,30.6151295 C7.82450835,30.6216478 10.7736716,31.2340749 13.5158824,32.4160195 L1.78074866,32.4160195 L1.78074866,32.4160195 Z M37.3957219,32.4160195 L25.6605882,32.4160195 C28.402799,31.2340749 31.3519622,30.6216478 34.3328342,30.6151295 L34.7245989,30.6151295 C35.2163391,30.6151295 35.6149733,30.2119866 35.6149733,29.7146846 L35.6149733,5.40266992 L37.3957219,5.40266992 L37.3957219,32.4160195 Z" id="Shape"></path>
            </g>
        </g>
    </g>
</svg>