<?xml version="1.0" encoding="UTF-8"?>
<svg width="64px" height="44px" viewBox="0 0 64 44" version="1.1" xmlns="http://www.w3.org/2000/svg" xmlns:xlink="http://www.w3.org/1999/xlink">
    <title>Interactive Graph</title>
    <g id="Dashboard-Wires---fourth-pass" stroke="none" stroke-width="1" fill="none" fill-rule="evenodd">
        <g id="Desktop-HD" transform="translate(-1025.000000, -65.000000)" stroke="#EBEBEB" stroke-width="2">
            <g id="Group-5" transform="translate(1026.250000, 66.750000)">
                <g id="Group" transform="translate(3.750000, 0.250000)">
                    <path d="M5,35.6015132 C8.15057247,35.6015132 13.1914884,39.2863513 18.8625189,24.2455739 C24.5335493,9.20479645 24.5335493,4 28.3871438,4 C32.2407382,4 31.1133747,10.6676779 36.5639882,24.2455739 C42.0146017,37.8234698 46.8774583,35.6015132 52,35.6015132" id="Path-3"></path>
                    <path d="M10,35.6513241 C13.1505725,35.6513241 18.1914884,38.8755574 23.8625189,25.7148771 C29.5335493,12.5541969 29.5335493,8 33.3871438,8 C37.2407382,8 36.1133747,13.8342182 41.5639882,25.7148771 C47.0146017,37.5955361 51.8774583,35.6513241 57,35.6513241" id="Path-3-Copy"></path>
                    <path d="M0,35.5517024 C3.15057247,35.5517024 8.19148842,39.6971452 13.8625189,22.7762706 C19.5335493,5.855396 19.5335493,0 23.3871438,0 C27.2407382,0 26.1133747,7.50113765 31.5639882,22.7762706 C37.0146017,38.0514035 41.8774583,35.5517024 47,35.5517024" id="Path-3-Copy-2"></path>
                </g>
                <line x1="0.75" y1="0.25" x2="0.75" y2="39.25" id="Line-8" stroke-linecap="square"></line>
                <line x1="0.875" y1="39.875" x2="60.75" y2="40.25" id="Line-8" stroke-linecap="square"></line>
            </g>
        </g>
    </g>
</svg>