<?xml version="1.0" encoding="UTF-8"?>
<svg width="30px" height="30px" viewBox="0 0 44 44" version="1.1" xmlns="http://www.w3.org/2000/svg" xmlns:xlink="http://www.w3.org/1999/xlink">
    <title>About</title>
    <g id="info-icon" stroke="none" stroke-width="1" fill="none" fill-rule="evenodd">
        <g id="info-icon" fill="#DDDDDD" fill-rule="nonzero">
            <path id="info-icon" d="M23.06,10.22 C23.3395509,10.5022584 23.4974883,10.8827442 23.5,11.28 C23.4982811,11.4783527 23.4610254,11.6747917 23.39,11.86 C23.3106989,12.0390692 23.1987976,12.2018347 23.06,12.34 C22.9199875,12.4811894 22.7534679,12.5933353 22.57,12.67 C22.3885559,12.7420071 22.1952089,12.7793197 22,12.78 C21.6014174,12.7841816 21.2184552,12.6252162 20.94,12.34 C20.8012024,12.2018347 20.6893011,12.0390692 20.61,11.86 C20.5389746,11.6747917 20.5017189,11.4783527 20.5,11.28 C20.4896642,11.1836096 20.4896642,11.0863904 20.5,10.99 C20.5206994,10.895064 20.54742,10.8015416 20.58,10.71 C20.6206528,10.6202272 20.6674297,10.5333557 20.72,10.45 C20.7778273,10.3689465 20.8413193,10.2920877 20.91,10.22 C20.9799302,10.1489273 21.0570047,10.0852571 21.14,10.03 C21.2202201,9.97482155 21.3077252,9.93106904 21.4,9.9 C21.4896591,9.85958473 21.5835842,9.82939452 21.68,9.81 C21.8712743,9.77009592 22.0687257,9.77009592 22.26,9.81 C22.3564158,9.82939452 22.4503409,9.85958473 22.54,9.9 C22.6313918,9.9331575 22.7186389,9.97678107 22.8,10.03 C22.8913801,10.0866177 22.9782998,10.150136 23.06,10.22 Z M22,16.71 C21.4477153,16.71 21,17.1577153 21,17.71 L21,32.71 C21,33.2622847 21.4477153,33.71 22,33.71 C22.5522847,33.71 23,33.2622847 23,32.71 L23,17.71 C23,17.1577153 22.5522847,16.71 22,16.71 Z M43.49,22 C43.49,33.8685993 33.8685993,43.49 22,43.49 C10.1314007,43.49 0.51,33.8685993 0.51,22 C0.51,10.1314007 10.1314007,0.51 22,0.51 C33.8640291,0.521026057 43.4789739,10.1359709 43.49,22 Z M41.49,22 C41.49,11.2359702 32.7640298,2.51 22,2.51 C11.2359702,2.51 2.51,11.2359702 2.51,22 C2.51,32.7640298 11.2359702,41.49 22,41.49 C32.7594602,41.478976 41.478976,32.7594602 41.49,22 L41.49,22 Z"></path>
        </g>
    </g>
</svg>