<?xml version="1.0" encoding="utf-8"?>
<!-- Generator: Adobe Illustrator 24.1.2, SVG Export Plug-In . SVG Version: 6.00 Build 0)  -->
<svg version="1.1" id="Layer_1" xmlns="http://www.w3.org/2000/svg" xmlns:xlink="http://www.w3.org/1999/xlink" x="0px" y="0px"
	 viewBox="0 0 151.3 44.3" style="enable-background:new 0 0 151.3 44.3;" xml:space="preserve">
<style type="text/css">
	.st0{fill:#FFFFFF;}
</style>
<path class="st0" d="M15,12c0.8-1.6,0.3-3.9-1.3-4.8c0.6,1.2-0.3,2.9-1.3,3.2c0.6-0.8,0.6-1.6,0.4-1.9c-0.1,0.3-0.6,0.8-0.9,1.3
	c-1.1,1.4-1.1,2.6,0.4,3.1c1.8,0.6,1.4,1.8,1.3,2.3c2.7-1.3,3.8-3.7,2.6-6.1C16.5,9.9,16.2,11.1,15,12z M24.5,6.7
	c-3.5-0.8-7-1.1-10.4-1.1c-3.5,0-7,0.4-10.4,1.1C3.2,6.8,3,7.2,3,7.6v1.9c0,13.3,8.2,18.7,10.7,20c0.1,0.1,0.3,0.1,0.4,0.1
	c0.1,0,0.3-0.1,0.4-0.1c2.5-1.3,10.7-6.7,10.7-20V7.6C25.1,7.2,24.9,6.8,24.5,6.7z M6.3,21.6c-0.1-0.2-0.2-0.4-0.3-0.6
	c1-1.3,2.3-2.3,3.7-2.9c-1.1,0.9-2,2.1-2.6,3.5C7,21.6,6.3,21.6,6.3,21.6z M9.7,26.1c-0.9-0.9-1.8-1.9-2.6-3.1
	c0.1-0.3,0.2-0.5,0.3-0.8h2.8C10,23.4,9.8,24.8,9.7,26.1z M7.7,21.6c1.1-2.1,2.6-3.6,4.5-4.3c-0.8,0.9-1.4,2.4-1.9,4.3H7.7z
	 M13.7,29.1c-0.6-0.3-1.3-0.8-2-1.3h2V29.1z M13.7,27.2h-2.9c-0.1-0.1-0.3-0.3-0.5-0.4c0.1-1.7,0.2-3.2,0.5-4.5h2.8L13.7,27.2
	L13.7,27.2z M13.7,21.6H11c0.6-2.6,1.6-4.2,2.7-4.5C13.7,17.1,13.7,21.6,13.7,21.6z M14.4,29.1v-1.3h2C15.7,28.5,15,28.9,14.4,29.1z
	 M17.3,27.2h-2.9v-4.9h2.8c0.3,1.3,0.4,2.8,0.5,4.5C17.6,27,17.4,27.1,17.3,27.2z M14.4,21.6v-4.5c1,0.3,2.1,1.9,2.7,4.5
	C17.1,21.6,14.4,21.6,14.4,21.6z M15.9,17.4c1.9,0.6,3.5,2.1,4.5,4.3h-2.6C17.4,19.7,16.7,18.2,15.9,17.4z M18.4,26.1
	c-0.1-1.4-0.2-2.7-0.4-3.9h2.8c0.1,0.3,0.2,0.5,0.3,0.8C20.2,24.3,19.3,25.3,18.4,26.1z M21.9,21.6h-0.7c-0.7-1.4-1.6-2.6-2.6-3.5
	c1.4,0.7,2.7,1.7,3.7,2.9C22.1,21.2,22,21.4,21.9,21.6z M24.8,9.4c0,4.5-0.9,8-2.3,10.9c-2-2.4-5.1-4-8.5-4s-6.5,1.6-8.5,4
	c-1.4-2.8-2.3-6.4-2.3-10.9V7.6c0-0.3,0.2-0.4,0.4-0.5c3.3-0.8,6.8-1.1,10.4-1.1c3.5,0,7,0.4,10.4,1.1c0.3,0.1,0.4,0.3,0.4,0.5
	L24.8,9.4C24.9,9.4,24.8,9.4,24.8,9.4z M33.5,9.4c0-2-0.2-2.3-1.3-2.3L31.8,7c-0.1-0.1-0.1-0.4,0.1-0.4c1.1,0.1,1.6,0.1,2.4,0.1
	c0.7,0,1.3,0,2.1-0.1c0.1,0.1,0.1,0.4,0.1,0.4l-0.3,0.1c-1.1,0.1-1.2,0.4-1.2,2.3v6.7c0,1.4-0.1,2.7-0.4,3.5
	c-0.6,1.4-1.9,2.6-3.6,2.6c-0.2,0-0.8,0-0.8-0.4c0-0.3,0.3-0.8,0.6-0.8c0.2,0,0.4,0.1,0.7,0.1c0.3,0.1,0.5,0.1,0.8,0.1
	c0.4,0,0.6-0.2,0.7-0.4c0.4-0.9,0.4-3.6,0.4-4.6V9.4C33.4,9.4,33.5,9.4,33.5,9.4z M36.3,13.7c0-3.1,2.3-5.4,5.4-5.4
	c3.5,0,5.3,2.6,5.3,5.3c0,3.1-2.3,5.3-5.3,5.3C38.3,18.9,36.3,16.4,36.3,13.7 M45.5,14c0-2.5-1.1-5.3-4-5.3c-1.6,0-3.6,1.1-3.6,4.5
	c0,2.3,1.1,5.2,4.1,5.2C43.7,18.4,45.5,17,45.5,14 M50.4,13.7c-0.8,0-0.8,0-0.8,0.5v2.1c0,1.6,0.1,1.8,0.9,1.9l0.4,0.1
	c0.1,0.1,0.1,0.3,0,0.4c-0.8-0.1-1.3-0.1-1.9-0.1s-1.2,0-1.8,0.1c-0.1-0.1-0.1-0.3,0-0.4l0.3-0.1c0.9-0.1,0.9-0.3,0.9-1.9v-5.5
	c0-1.6-0.1-1.9-0.9-1.9h-0.4c-0.1-0.1-0.1-0.3,0-0.4c0.8,0,1.3,0.1,1.9,0.1c0.6,0,1.1,0,1.8-0.1c0.1,0.1,0.1,0.3,0,0.4h-0.3
	c-0.9,0.1-0.9,0.3-0.9,1.9v1.8c0,0.5,0,0.5,0.8,0.5h4.3c0.8,0,0.8,0,0.8-0.5v-1.8c0-1.6,0-1.8-0.9-1.9h-0.3c-0.1-0.1-0.1-0.3,0-0.4
	c0.7,0,1.2,0.1,1.8,0.1c0.6,0,1.1,0,1.8-0.1c0.1,0.1,0.1,0.3,0,0.4h-0.3c-0.9,0.1-0.9,0.3-0.9,1.9v5.5c0,1.6,0,1.8,0.9,1.9l0.4,0.1
	c0.1,0.1,0.1,0.3,0,0.4c-0.8-0.1-1.3-0.1-1.8-0.1c-0.6,0-1.2,0-1.8,0.1c-0.1-0.1-0.1-0.3,0-0.4l0.3-0.1c0.9-0.1,0.9-0.3,0.9-1.9
	v-2.1c0-0.4,0-0.5-0.8-0.5C54.8,13.7,50.4,13.7,50.4,13.7z M68.4,16c0,0.4,0,2.3,0.1,2.7c0,0.1-0.1,0.2-0.3,0.2
	c-0.2-0.3-0.6-0.8-1.9-2.3l-3.5-4c-0.4-0.5-1.4-1.8-1.8-2.1c-0.1,0.2-0.1,0.6-0.1,1v3.3c0,0.7,0,2.7,0.3,3.1
	c0.1,0.2,0.4,0.3,0.8,0.3l0.4,0.1c0.1,0.1,0.1,0.3,0,0.4c-0.7,0-1.2-0.1-1.8-0.1c-0.6,0-1.1,0-1.6,0.1c-0.1-0.1-0.1-0.3,0-0.4
	l0.4-0.1c0.4-0.1,0.6-0.1,0.7-0.3c0.2-0.6,0.2-2.4,0.2-3.1v-4.4c0-0.4,0-0.8-0.3-1.1c-0.2-0.2-0.6-0.3-0.9-0.4h-0.3
	c-0.1-0.1-0.1-0.3,0-0.4c0.6,0.1,1.4,0.1,1.7,0.1c0.3,0,0.5,0,0.7-0.1c0.2,0.8,2,2.8,2.5,3.3l1.4,1.7c1.1,1.2,1.8,2,2.5,2.8
	c0.1-0.1,0.1-0.3,0.1-0.6v-3.3c0-0.7,0-2.7-0.3-3.1c-0.1-0.1-0.3-0.3-0.9-0.3h-0.3c-0.1-0.1-0.1-0.3,0-0.4c0.7,0,1.2,0.1,1.8,0.1
	s1.1,0,1.6-0.1c0.1,0.1,0.1,0.3,0,0.4h-0.2c-0.5,0.1-0.8,0.2-0.9,0.3c-0.3,0.6-0.3,2.4-0.3,3.1V16C68.3,16,68.4,16,68.4,16z
	 M72.5,18.9c-1.3,0-2.1-0.4-2.4-0.6c-0.2-0.3-0.4-1.4-0.4-2.1c0.1-0.1,0.3-0.1,0.4-0.1c0.3,0.8,0.9,2.3,2.6,2.3
	c1.3,0,1.9-0.8,1.9-1.8c0-0.7-0.1-1.4-1.3-2.1l-1.4-0.9c-0.8-0.5-1.6-1.4-1.6-2.6c0-1.4,1.1-2.6,3.1-2.6c0.5,0,1,0.1,1.4,0.2
	c0.2,0.1,0.4,0.1,0.5,0.1c0.1,0.4,0.3,1.3,0.3,1.9c-0.1,0.1-0.3,0.1-0.4,0.1c-0.2-0.8-0.6-1.8-2.1-1.8c-1.5,0-1.8,1-1.8,1.7
	c0,0.9,0.8,1.5,1.3,1.9l1.2,0.8c0.9,0.6,1.9,1.5,1.9,2.9C75.7,17.7,74.4,18.9,72.5,18.9 M84.7,12.8c-0.9,0-0.9,0.1-0.9,0.6v2.6
	c0,1.9,0.1,2.1,1.1,2.3l0.5,0.1c0.1,0.1,0.1,0.4-0.1,0.4c-0.9-0.1-1.6-0.1-2.3-0.1c-0.8,0-1.4,0.1-2.1,0.1c-0.1-0.1-0.1-0.3-0.1-0.4
	l0.3-0.1c1-0.2,1.1-0.4,1.1-2.3V9.4c0-1.9-0.1-2.2-1.1-2.3l-0.4-0.1c-0.1-0.1-0.1-0.4,0.1-0.4c0.9,0,1.5,0.1,2.3,0.1
	c0.7,0,1.3,0,2.1-0.1c0.1,0.1,0.1,0.4,0.1,0.4l-0.3,0.1c-1.1,0.1-1.1,0.4-1.1,2.3v2.1c0,0.6,0.1,0.6,0.9,0.6h5.1
	c0.9,0,0.9,0,0.9-0.6V9.4c0-1.9-0.1-2.2-1.1-2.3l-0.3-0.1c-0.1-0.1-0.1-0.4,0.1-0.4c0.8,0.1,1.4,0.1,2.2,0.1c0.7,0,1.3,0,2.1-0.1
	c0.1,0.1,0.1,0.4,0.1,0.4l-0.4,0.1c-1.1,0.1-1.1,0.4-1.1,2.3v6.5c0,1.9,0.1,2.1,1.1,2.3l0.4,0.1c0.1,0.1,0.1,0.4-0.1,0.4
	c-0.9-0.1-1.5-0.1-2.2-0.1c-0.8,0-1.4,0-2.2,0.1c-0.1-0.1-0.1-0.3-0.1-0.4l0.3-0.1c1.1-0.2,1.1-0.4,1.1-2.3v-2.6
	c0-0.6-0.1-0.6-0.9-0.6C89.9,12.8,84.7,12.8,84.7,12.8z M93.6,13.7c0-3.1,2.3-5.4,5.4-5.4c3.5,0,5.3,2.6,5.3,5.3
	c0,3.1-2.3,5.3-5.3,5.3C95.7,18.9,93.6,16.4,93.6,13.7 M102.8,14c0-2.5-1.1-5.3-4-5.3c-1.6,0-3.6,1.1-3.6,4.5c0,2.3,1.1,5.2,4.1,5.2
	C101.1,18.4,102.8,17,102.8,14 M107,16.3c0,1.6,0,1.8,1,1.9l0.4,0.1c0.1,0.1,0.1,0.3,0,0.4c-0.9,0-1.4-0.1-1.9-0.1
	c-0.6,0-1.2,0-1.9,0.1c-0.1-0.1-0.1-0.3,0-0.4l0.3-0.1c0.9-0.1,0.9-0.3,0.9-1.9v-5.6c0-1.3,0-1.6-0.7-1.6l-0.6-0.1
	c-0.1-0.1-0.1-0.3,0-0.4c0.8-0.1,1.8-0.1,3-0.1s2.2,0.2,2.9,0.6c0.7,0.4,1.2,1.3,1.2,2.3c0,1.4-0.9,2.1-1.5,2.4
	c-0.7,0.3-1.4,0.4-2.1,0.4c-0.1-0.1-0.1-0.3,0-0.3c1.6-0.3,2.3-1.3,2.3-2.6c0-1.5-0.9-2.4-2.4-2.4c-0.8,0-0.8,0.1-0.8,0.6v6.8
	C107.1,16.3,107,16.3,107,16.3z M113.4,10.8c0-1.6,0-1.8-0.9-1.9H112c-0.1-0.1-0.1-0.3,0-0.4c0.8,0,1.3,0.1,1.9,0.1
	c0.6,0,1.1,0,1.8-0.1c0.1,0.1,0.1,0.3,0,0.4h-0.3c-0.9,0.1-0.9,0.3-0.9,1.9v1.8c0,0.3,0,0.6,0.2,0.6c0.1,0,0.3-0.1,0.4-0.2
	c0.2-0.2,0.6-0.6,0.8-0.8l1.6-1.6c0.3-0.3,1-1.1,1.2-1.3c0.1-0.1,0.1-0.2,0.1-0.3c0-0.1-0.1-0.1-0.3-0.1l-0.4-0.1
	c-0.1-0.1-0.1-0.3,0-0.4c0.5,0,1.1,0.1,1.7,0.1c0.5,0,1.1,0,1.5-0.1c0.1,0.1,0.1,0.3,0,0.4c-0.4,0-1,0.2-1.4,0.4
	c-0.4,0.3-1.3,0.9-2.1,1.8l-1.4,1.3c-0.2,0.2-0.4,0.4-0.4,0.5c0,0.1,0.1,0.3,0.3,0.5c1.4,1.7,2.6,3.1,3.8,4.3
	c0.4,0.4,0.7,0.6,1.2,0.6l0.4,0.1c0.1,0.1,0.1,0.3,0,0.4c-0.4,0-1-0.1-1.7-0.1c-0.6,0-1.1,0-1.9,0.1c-0.1,0-0.1-0.3-0.1-0.4l0.4-0.1
	c0.2,0,0.4-0.1,0.4-0.1s-0.1-0.2-0.2-0.4c-0.3-0.4-0.7-0.8-1.3-1.4l-1.2-1.4c-0.9-1-1.1-1.3-1.4-1.3c-0.3,0-0.3,0.2-0.3,0.8v1.8
	c0,1.6,0,1.8,0.9,1.9l0.4,0.1c0.1,0.1,0.1,0.3,0,0.4c-0.8,0-1.3-0.1-1.9-0.1s-1.1,0-1.8,0.1c-0.1-0.1-0.1-0.3,0-0.4l0.3-0.1
	c0.8-0.1,0.8-0.3,0.8-1.9C113.4,16.3,113.4,10.8,113.4,10.8z M123.8,10.8c0-1.6,0-1.9-0.9-1.9h-0.4c-0.1-0.1-0.1-0.3,0-0.4
	c0.8,0,1.3,0.1,1.9,0.1c0.6,0,1.1,0,1.9-0.1c0.1,0.1,0.1,0.3,0,0.4h-0.4c-0.9,0.1-0.9,0.3-0.9,1.9v5.5c0,1.6,0,1.8,0.9,1.9l0.4,0.1
	c0.1,0.1,0.1,0.3,0,0.4c-0.8-0.1-1.3-0.1-1.9-0.1s-1.1,0-1.9,0.1c-0.1-0.1-0.1-0.3,0-0.4l0.4-0.1c0.9-0.1,0.9-0.3,0.9-1.9V10.8z
	 M137,16c0,0.4,0,2.3,0.1,2.7c0,0.1-0.1,0.2-0.3,0.2c-0.2-0.3-0.6-0.8-1.9-2.3l-3.5-4c-0.4-0.5-1.4-1.8-1.8-2.1
	c-0.1,0.2-0.1,0.6-0.1,1v3.3c0,0.7,0,2.7,0.3,3.1c0.1,0.2,0.4,0.3,0.8,0.3l0.4,0.1c0.1,0.1,0.1,0.3,0,0.4c-0.7,0-1.2-0.1-1.8-0.1
	c-0.6,0-1.1,0-1.6,0.1c-0.1-0.1-0.1-0.3,0-0.4l0.4-0.1c0.4-0.1,0.6-0.1,0.7-0.3c0.2-0.6,0.2-2.4,0.2-3.1v-4.4c0-0.4,0-0.8-0.3-1.1
	c-0.2-0.2-0.6-0.3-0.9-0.4h-0.3c-0.1-0.1-0.1-0.3,0-0.4c0.6,0.1,1.4,0.1,1.7,0.1s0.5,0,0.7-0.1c0.3,0.8,2.1,2.8,2.6,3.4l1.4,1.7
	c1.1,1.2,1.8,2,2.5,2.8c0.1-0.1,0.1-0.3,0.1-0.6v-3.3c0-0.7,0-2.7-0.3-3.1c-0.1-0.1-0.3-0.3-0.9-0.3h-0.3c-0.1-0.1-0.1-0.3,0-0.4
	c0.7,0,1.2,0.1,1.8,0.1s1.1,0,1.6-0.1c0.1,0.1,0.1,0.3,0,0.4H138c-0.5,0.1-0.8,0.2-0.9,0.3c-0.3,0.6-0.3,2.4-0.3,3.1
	C136.9,12.5,137,16,137,16z M140.9,18.9c-1.3,0-2.1-0.4-2.4-0.6c-0.2-0.3-0.4-1.4-0.4-2.1c0.1-0.1,0.3-0.1,0.4-0.1
	c0.3,0.8,0.9,2.3,2.6,2.3c1.3,0,1.9-0.8,1.9-1.8c0-0.7-0.1-1.4-1.3-2.1l-1.4-0.9c-0.8-0.5-1.6-1.4-1.6-2.6c0-1.4,1.1-2.6,3.1-2.6
	c0.5,0,1,0.1,1.4,0.2c0.2,0.1,0.4,0.1,0.5,0.1c0.1,0.4,0.3,1.3,0.3,1.9c-0.1,0.1-0.3,0.1-0.4,0.1c-0.2-0.8-0.6-1.8-2.1-1.8
	c-1.5,0-1.8,1-1.8,1.7c0,0.9,0.8,1.5,1.3,1.9l1.2,0.8c0.9,0.6,1.9,1.5,1.9,2.9C144.2,17.7,142.9,18.9,140.9,18.9 M43.7,26.5
	c0-0.6-0.1-0.8-0.4-0.8h-0.3c-0.1-0.1-0.1-0.2,0-0.2c0.4-0.1,0.9-0.1,1.7-0.1c0.5,0,0.9,0.1,1.3,0.3c0.3,0.2,0.6,0.5,0.6,1
	c0,0.6-0.3,0.9-0.8,1.1c0,0.1,0.1,0.1,0.1,0.1c0.4,0.1,1.1,0.5,1.1,1.3c0,0.9-0.7,1.5-2.1,1.5h-0.9h-0.9c-0.1,0-0.1-0.1,0-0.2h0.1
	c0.4-0.1,0.4-0.2,0.4-1C43.8,29.5,43.7,26.5,43.7,26.5z M44.3,27.5c0,0.3,0,0.3,0.4,0.3c0.8-0.1,1.3-0.3,1.3-1
	c0-0.8-0.6-1.1-1.2-1.1c-0.2,0-0.3,0-0.4,0.1c-0.1,0-0.1,0.1-0.1,0.2V27.5z M44.3,29.3c0,0.3,0,0.7,0.2,0.9c0.1,0.2,0.4,0.3,0.6,0.3
	c0.7,0,1.3-0.3,1.3-1.1c0-0.6-0.3-1.4-1.6-1.4c-0.4,0-0.4,0.1-0.4,0.2L44.3,29.3C44.4,29.3,44.3,29.3,44.3,29.3z M48.9,26.6
	c0-0.8,0-0.9-0.5-1h-0.2c-0.1,0,0-0.2,0-0.2h1c0,0,0.6,0,0.9,0c0.1,0,0.1,0.2,0,0.2h-0.2c-0.4,0.1-0.5,0.2-0.5,1v2.8
	c0,0.5,0,0.7,0.2,0.9c0.1,0.1,0.3,0.2,0.9,0.2c0.7,0,0.8-0.1,0.9-0.1c0.2-0.1,0.4-0.4,0.5-0.8c0.1-0.1,0.2,0,0.2,0.1
	c0,0.1-0.3,0.9-0.3,1.1h-1.9h-0.8h-1c-0.1,0-0.1-0.1,0-0.2h0.3c0.4-0.1,0.5-0.2,0.5-1C48.9,29.6,48.9,26.6,48.9,26.6z M52.9,28.1
	c0-1.6,1.2-2.8,2.8-2.8c1.8,0,2.7,1.3,2.7,2.7c0,1.6-1.2,2.8-2.7,2.8C53.9,30.8,52.9,29.5,52.9,28.1 M57.6,28.3
	c0-1.3-0.6-2.7-2.1-2.7c-0.8,0-1.9,0.6-1.9,2.3c0,1.2,0.6,2.7,2.1,2.7C56.7,30.5,57.6,29.8,57.6,28.3 M59.5,28.1
	c0-1.6,1.2-2.8,2.8-2.8c1.8,0,2.7,1.3,2.7,2.7c0,1.6-1.2,2.8-2.7,2.8C60.5,30.8,59.5,29.5,59.5,28.1 M64.2,28.3
	c0-1.3-0.6-2.7-2.1-2.7c-0.8,0-1.9,0.6-1.9,2.3c0,1.2,0.6,2.7,2.1,2.7C63.3,30.5,64.2,29.8,64.2,28.3 M68.7,28.5
	c0.2,0.4,0.4,0.8,0.6,1.1c0.2-0.4,0.4-0.8,0.6-1.2l0.8-1.5c0.4-0.7,0.6-1.1,0.6-1.5h0.6h0.7c0.1,0.1,0.1,0.2,0,0.2h-0.2
	c-0.5,0.1-0.6,0.2-0.6,0.8c0,0.8,0,2.3,0.1,3.5c0,0.4,0,0.6,0.4,0.6h0.3c0.1,0.1,0.1,0.2,0,0.2h-0.9h-0.9c-0.1-0.1-0.1-0.1,0-0.2
	h0.3c0.4-0.1,0.4-0.2,0.4-0.7v-3.3c-0.1,0.1-0.4,0.7-0.5,1l-0.7,1.4c-0.4,0.7-0.7,1.4-0.9,1.8l-0.1,0.1c0,0-0.1,0-0.1-0.1
	c-0.1-0.4-0.5-1.2-0.7-1.6l-0.8-1.4c-0.2-0.4-0.3-0.8-0.5-1.1c0,0.5-0.1,0.9-0.1,1.4c0,0.5-0.1,1.2-0.1,1.9c0,0.6,0.1,0.7,0.4,0.8
	h0.3c0.1,0.1,0.1,0.2,0,0.2h-0.9H66c-0.1-0.1-0.1-0.2,0-0.2h0.2c0.3-0.1,0.4-0.1,0.5-0.6c0.1-0.5,0.1-0.9,0.1-1.8
	c0.1-0.6,0.1-1.3,0.1-1.8c0-0.5-0.1-0.6-0.5-0.7h-0.1c-0.1-0.1,0-0.2,0.1-0.2h0.6c0,0,0.4,0,0.6,0c-0.1,0.3,0.2,0.8,0.4,1.3
	C68,26.8,68.7,28.5,68.7,28.5z M74.3,26.5c0-0.6-0.1-0.8-0.4-0.8h-0.3c-0.1-0.1-0.1-0.2,0-0.2c0.4-0.1,0.9-0.1,1.7-0.1
	c0.5,0,0.9,0.1,1.3,0.3c0.3,0.2,0.6,0.5,0.6,1c0,0.6-0.3,0.9-0.8,1.1c0,0.1,0.1,0.1,0.1,0.1c0.4,0.1,1.1,0.5,1.1,1.3
	c0,0.9-0.7,1.5-2.1,1.5h-0.9h-0.9c-0.1,0-0.1-0.1,0-0.2h0.1c0.4-0.1,0.4-0.2,0.4-1C74.3,29.5,74.3,26.5,74.3,26.5z M74.9,27.5
	c0,0.3,0,0.3,0.4,0.3c0.8-0.1,1.3-0.3,1.3-1c0-0.8-0.6-1.1-1.2-1.1c-0.2,0-0.3,0-0.4,0.1c-0.1,0-0.1,0.1-0.1,0.2V27.5z M74.9,29.3
	c0,0.3,0,0.7,0.2,0.9c0.1,0.2,0.4,0.3,0.6,0.3c0.7,0,1.3-0.3,1.3-1.1c0-0.6-0.3-1.4-1.6-1.4C75,28,75,28,75,28.1L74.9,29.3
	C75,29.3,74.9,29.3,74.9,29.3z M79.4,26.6c0-0.8,0-0.9-0.5-1h-0.1c-0.1,0-0.1-0.2,0-0.2h0.9h1.5h1.1c0.1,0.1,0.1,0.7,0.1,1.1
	c-0.1,0.1-0.2,0.1-0.2,0c-0.1-0.4-0.2-0.6-0.6-0.8c-0.2-0.1-0.4-0.1-0.8-0.1h-0.6c-0.3,0-0.3,0-0.3,0.3v1.6c0,0.3,0,0.3,0.3,0.3h0.4
	c0.3,0,0.6,0,0.7-0.1c0.1-0.1,0.1-0.1,0.2-0.3l0.1-0.3c0.1-0.1,0.2-0.1,0.2,0c0,0.2-0.1,0.5-0.1,0.8s0.1,0.6,0.1,0.8
	c-0.1,0.1-0.2,0.1-0.2,0l-0.1-0.3c0-0.1-0.1-0.3-0.3-0.3c-0.1-0.1-0.3-0.1-0.6-0.1h-0.4c-0.3,0-0.3,0-0.3,0.2v1.1
	c0,0.4,0,0.7,0.1,0.8c0.1,0.1,0.3,0.2,0.9,0.2c0.6,0,0.8-0.1,1-0.1c0.1-0.1,0.4-0.4,0.6-0.8c0.1-0.1,0.2,0,0.2,0.1
	c-0.1,0.3-0.3,0.9-0.4,1.1h-2.1h-0.7h-1.1c-0.1,0-0.1-0.1,0-0.2h0.3c0.4-0.1,0.5-0.2,0.5-1L79.4,26.6z M84.4,26.6
	c0-0.8,0-0.9-0.4-0.9l-0.3-0.1c-0.1-0.1-0.1-0.2,0-0.2c0.4-0.1,1-0.1,1.8-0.1c0.5,0,0.9,0.1,1.3,0.3c0.4,0.2,0.6,0.6,0.6,1.1
	c0,0.8-0.6,1.2-1,1.3c-0.1,0.1,0,0.1,0.1,0.2c0.6,1,1.1,1.6,1.6,2.1c0.1,0.1,0.3,0.2,0.6,0.3c0.1,0,0.1,0.1,0,0.1
	c-0.1,0-0.2,0.1-0.4,0.1c-0.7,0-1.1-0.2-1.6-1c-0.2-0.3-0.5-0.8-0.8-1.2c-0.1-0.2-0.3-0.3-0.6-0.3c-0.4,0-0.4,0-0.4,0.2v0.9
	c0,0.8,0,0.9,0.5,1h0.2c0.1,0.1,0.1,0.2,0,0.2h-0.9c0,0-0.6,0-1,0c-0.1,0-0.1-0.1,0-0.2h0.2c0.4-0.1,0.5-0.2,0.5-1V26.6z M85,27.8
	V28c0,0,0.1,0.1,0.6,0.1c0.3,0,0.6,0,0.8-0.2c0.2-0.2,0.4-0.4,0.4-1c0-0.6-0.4-1.2-1.3-1.2c-0.5,0-0.5,0-0.5,0.3
	C85,25.9,85,27.8,85,27.8z M93.6,29.8c0,0.3,0.1,0.5,0.2,0.6v0.1c-0.1,0-0.3,0-0.4,0.1c-0.4,0.1-1,0.2-1.4,0.2
	c-0.9,0-1.8-0.3-2.4-0.9c-0.5-0.5-0.8-1.1-0.8-1.8c0-0.7,0.2-1.4,0.7-1.9c0.5-0.6,1.3-0.9,2.5-0.9c0.4,0,0.9,0.1,1,0.1
	s0.4,0.1,0.5,0.1c0,0.3,0.1,0.7,0.1,1.1c0,0.1-0.2,0.1-0.2,0c-0.3-0.9-0.8-1.1-1.6-1.1c-1.5,0-2.2,1.1-2.2,2.3
	c0,1.5,0.8,2.7,2.4,2.7c0.5,0,0.8-0.1,0.9-0.3C93,30.1,93,30,93,29.7v-0.3c0-0.7,0-0.7-0.5-0.8l-0.4-0.1c-0.1,0-0.1-0.2,0-0.2h1.1
	h0.8c0.1,0.1,0.1,0.1,0,0.2H94c-0.3,0.1-0.3,0.3-0.3,0.7L93.6,29.8C93.7,29.8,93.6,29.8,93.6,29.8z M99.2,30.8
	c-0.7,0-1.1-0.2-1.3-0.3c-0.1-0.2-0.2-0.8-0.2-1.1c0.1-0.1,0.2-0.1,0.2,0c0.1,0.4,0.4,1.2,1.4,1.2c0.7,0,1-0.4,1-0.9
	c0-0.4-0.1-0.8-0.6-1.1L98.9,28c-0.4-0.3-0.9-0.7-0.9-1.4c0-0.8,0.6-1.4,1.6-1.4c0.3,0,0.5,0.1,0.8,0.1c0.1,0.1,0.2,0.1,0.3,0.1
	c0.1,0.2,0.1,0.6,0.1,0.9c0,0.1-0.2,0.1-0.2,0c-0.1-0.4-0.3-0.9-1.1-0.9s-0.9,0.5-0.9,0.9c0,0.4,0.4,0.8,0.7,0.9l0.6,0.4
	c0.5,0.3,1,0.8,1,1.5C100.8,30.2,100.2,30.8,99.2,30.8 M102.8,26c0.6-0.4,1.3-0.7,2.1-0.7c0.4,0,1,0.1,1.4,0.2c0.1,0,0.1,0.1,0.3,0
	c0,0.2,0.1,0.7,0.1,1.2c-0.1,0.1-0.2,0.1-0.2,0c-0.1-0.6-0.5-1.1-1.6-1.1c-1.2,0-2.2,0.8-2.2,2.4c0,1.6,1.1,2.6,2.3,2.6
	c1,0,1.4-0.7,1.6-1.1c0.1-0.1,0.2,0,0.2,0.1c-0.1,0.4-0.3,0.9-0.4,1.1c-0.1,0-0.2,0.1-0.3,0.1c-0.2,0.1-0.8,0.2-1.3,0.2
	c-0.7,0-1.4-0.1-1.9-0.5c-0.6-0.4-1.1-1.1-1.1-2.2C101.8,27.2,102.2,26.5,102.8,26 M109.3,28.1c-0.4,0-0.4,0-0.4,0.3v1.1
	c0,0.8,0.1,0.9,0.5,1h0.3c0.1,0,0.1,0.2,0,0.2h-1c0,0-0.6,0-0.9,0c-0.1,0-0.1-0.1,0-0.2h0.1c0.4-0.1,0.4-0.2,0.4-1v-2.8
	c0-0.8-0.1-0.9-0.4-1h-0.2c-0.1,0,0-0.2,0-0.2h1h0.9c0.1,0,0.1,0.2,0,0.2h-0.1c-0.4,0.1-0.5,0.2-0.5,1v0.9c0,0.3,0,0.3,0.4,0.3h2.3
	c0.4,0,0.4,0,0.4-0.3v-0.9c0-0.8,0-0.9-0.5-1h-0.1c-0.1,0-0.1-0.2,0-0.2h0.9c0,0,0.6,0,0.9,0c0.1,0,0.1,0.2,0,0.2h-0.2
	c-0.4,0.1-0.5,0.2-0.5,1v2.8c0,0.8,0,0.9,0.5,1h0.2c0.1,0,0,0.2,0,0.2h-0.9c0,0-0.6,0-0.9,0c-0.1,0-0.1-0.1,0-0.2h0.1
	c0.5-0.1,0.5-0.2,0.5-1v-1.1c0-0.3,0-0.3-0.4-0.3H109.3z M114.2,28.1c0-1.6,1.2-2.8,2.8-2.8c1.8,0,2.7,1.3,2.7,2.7
	c0,1.6-1.2,2.8-2.7,2.8C115.2,30.8,114.2,29.5,114.2,28.1 M118.9,28.3c0-1.3-0.6-2.7-2.1-2.7c-0.8,0-1.9,0.6-1.9,2.3
	c0,1.2,0.6,2.7,2.1,2.7C118,30.5,118.9,29.8,118.9,28.3 M120.8,28.1c0-1.6,1.2-2.8,2.8-2.8c1.8,0,2.7,1.3,2.7,2.7
	c0,1.6-1.2,2.8-2.7,2.8C121.8,30.8,120.8,29.5,120.8,28.1 M125.5,28.3c0-1.3-0.6-2.7-2.1-2.7c-0.8,0-1.9,0.6-1.9,2.3
	c0,1.2,0.6,2.7,2.1,2.7C124.7,30.5,125.5,29.8,125.5,28.3 M128,26.6c0-0.8,0-0.9-0.5-1h-0.2c-0.1,0,0-0.2,0-0.2h1c0,0,0.6,0,0.9,0
	c0.1,0,0.1,0.2,0,0.2h-0.2c-0.4,0.1-0.5,0.2-0.5,1v2.8c0,0.5,0,0.7,0.2,0.9c0.1,0.1,0.3,0.2,0.9,0.2c0.7,0,0.8-0.1,0.9-0.1
	c0.2-0.1,0.4-0.4,0.5-0.8c0.1-0.1,0.2,0,0.2,0.1s-0.2,0.9-0.3,1.1H129h-0.8h-1c-0.1,0-0.1-0.1,0-0.2h0.3c0.4-0.1,0.5-0.2,0.5-1
	C128,29.6,128,26.6,128,26.6z M53.3,37.1c0,0.4-0.3,1.2-0.8,1.8c-0.5,0.5-0.9,0.6-1.1,0.6c-0.5,0-0.8-0.4-0.8-1.1
	c0.1-0.5,0.3-1.3,0.9-1.8c0.4-0.4,0.8-0.5,1.1-0.5C53.1,36.1,53.3,36.4,53.3,37.1 M51.9,36.7c-0.4,0.6-0.8,1.6-0.8,2
	c0,0.3,0.1,0.5,0.3,0.5s0.4-0.1,0.6-0.4c0.4-0.4,0.7-1.5,0.8-1.9c0-0.3-0.1-0.5-0.3-0.5C52.2,36.2,52.1,36.4,51.9,36.7 M55.6,36.4
	c-0.1,0.1-0.1,0.4-0.2,0.8c-0.3,0.9-0.4,1.6-0.7,2.5c-0.2,0.7-0.4,1.1-0.6,1.3c-0.1,0.1-0.5,0.4-0.9,0.4c-0.4,0-0.6-0.3-0.6-0.4
	c0-0.2,0.1-0.3,0.2-0.4c0.1-0.1,0.1,0,0.2,0.1c0.2,0.2,0.4,0.3,0.6,0.3c0.2,0,0.3-0.1,0.5-0.7c0.4-1.3,0.6-2.6,1-3.9h-0.6
	c-0.1-0.1-0.1-0.3,0.1-0.3h0.6c0.2-0.7,0.4-1.3,0.9-1.9c0.4-0.4,0.8-0.6,1.3-0.6c0.3,0,0.6,0.2,0.6,0.5c0,0.2-0.2,0.4-0.3,0.4
	c-0.1,0-0.1-0.1-0.1-0.1c0-0.4-0.3-0.6-0.4-0.6c-0.2,0-0.4,0.2-0.6,0.4c-0.4,0.5-0.5,1.1-0.8,1.8h1c0.1,0.1,0.1,0.2-0.1,0.3
	C56.6,36.4,55.6,36.4,55.6,36.4z M61,38.1c0,0.8,0,0.9,0.5,1h0.2c0.1,0.1,0.1,0.2,0,0.2h-1c0,0-0.6,0-0.9,0c-0.1,0-0.1-0.1,0-0.2
	h0.2c0.4-0.1,0.5-0.2,0.5-1v-2.9c0-0.7,0-0.8-0.4-0.8l-0.3-0.1c-0.1-0.1-0.1-0.2,0-0.2c0.4-0.1,0.9-0.1,1.6-0.1
	c0.6,0,1.1,0.1,1.5,0.3s0.6,0.6,0.6,1.2c0,0.8-0.4,1.1-0.8,1.3c-0.4,0.2-0.8,0.3-1.1,0.3c-0.1,0-0.1-0.1,0-0.2
	c0.9-0.2,1.1-0.6,1.1-1.3c0-0.8-0.4-1.3-1.3-1.3c-0.4,0-0.4,0-0.4,0.3C61,34.5,61,38.1,61,38.1z M68.7,36.1c0-0.5,0-1.4-0.1-1.6
	c-0.1-0.1-0.2-0.1-0.4-0.2h-0.2C68,34.2,68,34,68.1,34h0.9c0,0,0.6,0,0.8,0c0.1,0.1,0.1,0.1,0,0.2h-0.2c-0.2,0-0.4,0.1-0.4,0.2
	c-0.1,0.3-0.1,1.2-0.1,1.6v0.9c0,0.7-0.1,1.4-0.6,1.9c-0.3,0.4-0.9,0.6-1.5,0.6s-1.1-0.1-1.4-0.4c-0.4-0.4-0.6-0.9-0.6-1.9v-1.9
	c0-0.8,0-0.9-0.5-1h-0.2c-0.1-0.1-0.1-0.2,0-0.2h1c0,0,0.6,0,0.9,0c0.1,0,0.1,0.2,0,0.2H66c-0.4,0.1-0.5,0.2-0.5,1v1.7
	c0,1.3,0.4,2.1,1.6,2.1c1.1,0,1.6-0.9,1.6-2.1v-0.8C68.6,36.1,68.7,36.1,68.7,36.1z M71.3,35c0-0.6-0.1-0.8-0.4-0.8h-0.3
	c-0.1-0.1-0.1-0.2,0-0.2c0.4-0.1,0.9-0.1,1.7-0.1c0.5,0,0.9,0.1,1.3,0.3c0.3,0.2,0.6,0.5,0.6,1c0,0.6-0.3,0.9-0.8,1.1
	c0,0.1,0.1,0.1,0.1,0.1c0.4,0.1,1.1,0.5,1.1,1.3c0,0.9-0.7,1.5-2.1,1.5h-0.9h-0.9c-0.1,0-0.1-0.1,0-0.2h0.1c0.4-0.1,0.4-0.2,0.4-1
	C71.3,38.1,71.3,35,71.3,35z M71.9,36.1c0,0.3,0,0.3,0.4,0.3c0.8-0.1,1.3-0.3,1.3-1s-0.6-1.1-1.2-1.1c-0.2,0-0.3,0-0.4,0.1
	c-0.1,0-0.1,0.1-0.1,0.2V36.1z M71.9,37.9c0,0.3,0,0.7,0.2,0.9c0.1,0.2,0.4,0.3,0.6,0.3c0.7,0,1.3-0.3,1.3-1.1
	c0-0.6-0.3-1.4-1.6-1.4c-0.4,0-0.4,0.1-0.4,0.2L71.9,37.9C72,37.9,71.9,37.9,71.9,37.9z M76.4,35.2c0-0.8,0-0.9-0.5-1h-0.2
	c-0.1,0,0-0.2,0-0.2h1c0,0,0.6,0,0.9,0c0.1,0,0.1,0.2,0,0.2h-0.2c-0.4,0.1-0.5,0.2-0.5,1V38c0,0.5,0,0.7,0.2,0.9
	c0.1,0.1,0.3,0.2,0.9,0.2c0.7,0,0.8-0.1,0.9-0.1c0.2-0.1,0.4-0.4,0.5-0.8c0.1-0.1,0.2,0,0.2,0.1c0,0.1-0.3,0.9-0.3,1.1h-1.9h-0.8h-1
	c-0.1,0-0.1-0.1,0-0.2h0.3c0.4-0.1,0.5-0.2,0.5-1C76.4,38.2,76.4,35.2,76.4,35.2z M81.2,35.2c0-0.8,0-1-0.5-1h-0.2
	c-0.1,0-0.1-0.2,0-0.2h1c0,0,0.6,0,1,0c0.1,0,0.1,0.2,0,0.2h-0.2c-0.4,0.1-0.5,0.2-0.5,1v2.8c0,0.8,0,0.9,0.5,1h0.2
	c0.1,0,0.1,0.2,0,0.2h-1c0,0-0.6,0-1,0c-0.1,0-0.1-0.1,0-0.2h0.2c0.4-0.1,0.5-0.2,0.5-1V35.2z M84.6,34.6c0.6-0.4,1.3-0.7,2.1-0.7
	c0.4,0,1,0.1,1.4,0.2c0.1,0,0.1,0.1,0.3,0c0,0.2,0.1,0.7,0.1,1.2c-0.1,0.1-0.2,0.1-0.2,0c-0.1-0.6-0.5-1.1-1.6-1.1
	c-1.2,0-2.2,0.8-2.2,2.4s1.1,2.6,2.3,2.6c1,0,1.4-0.7,1.6-1.1c0.1-0.1,0.2,0,0.2,0.1c-0.1,0.4-0.3,0.9-0.4,1.1
	c-0.1,0-0.2,0.1-0.3,0.1c-0.2,0.1-0.8,0.2-1.3,0.2c-0.7,0-1.4-0.1-1.9-0.5c-0.6-0.4-1.1-1.1-1.1-2.2C83.6,35.8,83.9,35,84.6,34.6
	 M93.4,36.7c-0.4,0-0.4,0-0.4,0.3v1.1c0,0.8,0.1,0.9,0.5,1h0.3c0.1,0,0.1,0.2,0,0.2h-1c0,0-0.6,0-0.9,0c-0.1,0-0.1-0.1,0-0.2H92
	c0.4-0.1,0.4-0.2,0.4-1v-2.8c0-0.8-0.1-0.9-0.4-1h-0.2c-0.1,0-0.1-0.2,0-0.2h1h0.9c0.1,0,0.1,0.2,0,0.2h-0.1c-0.4,0.1-0.5,0.2-0.5,1
	v0.9c0,0.3,0,0.3,0.4,0.3h2.3c0.4,0,0.4,0,0.4-0.3v-0.9c0-0.8,0-0.9-0.5-1h-0.1c-0.1,0-0.1-0.2,0-0.2h0.9c0,0,0.6,0,0.9,0
	c0.1,0,0.1,0.2,0,0.2h-0.2c-0.4,0.1-0.5,0.2-0.5,1v2.8c0,0.8,0,0.9,0.5,1h0.2c0.1,0,0,0.2,0,0.2h-0.9c0,0-0.6,0-0.9,0
	c-0.1,0-0.1-0.1,0-0.2h0.1c0.5-0.1,0.5-0.2,0.5-1v-1.1c0-0.3,0-0.3-0.4-0.3H93.4z M99.1,35.2c0-0.8,0-0.9-0.5-1h-0.1
	c-0.1,0,0-0.2,0-0.2h0.9h1.5h1.1c0.1,0.1,0.1,0.7,0.1,1.1c-0.1,0.1-0.2,0.1-0.2,0c-0.1-0.4-0.2-0.6-0.6-0.8
	c-0.2-0.1-0.4-0.1-0.8-0.1H100c-0.3,0-0.3,0-0.3,0.3v1.6c0,0.3,0,0.3,0.3,0.3h0.4c0.3,0,0.6,0,0.7-0.1c0.1-0.1,0.1-0.1,0.2-0.3
	l0.1-0.3c0.1-0.1,0.2-0.1,0.2,0v0.8c0,0,0,0.6,0,0.8c0,0.1-0.2,0.1-0.2,0l-0.1-0.3c0-0.1-0.1-0.3-0.3-0.3c-0.1-0.1-0.3-0.1-0.6-0.1
	H100c-0.3,0-0.3,0-0.3,0.2V38c0,0.4,0,0.7,0.1,0.8c0.1,0.1,0.3,0.2,0.9,0.2c0.6,0,0.8-0.1,1-0.1c0.1-0.1,0.4-0.4,0.6-0.8
	c0.1-0.1,0.2,0,0.2,0.1c-0.1,0.3-0.3,0.9-0.4,1.1h-2.1h-0.7h-1.1c-0.1,0-0.1-0.1,0-0.2h0.3c0.4-0.1,0.5-0.2,0.5-1
	C99.1,38.1,99.1,35.2,99.1,35.2z M106.3,37.4c-0.1-0.2-0.1-0.2-0.3-0.2h-1.2c-0.2,0-0.3,0-0.3,0.2l-0.3,0.8
	c-0.1,0.4-0.2,0.6-0.2,0.6c0,0.1,0.1,0.1,0.3,0.2h0.3c0.1,0.1,0.1,0.2,0,0.2h-0.8h-0.8c-0.1-0.1-0.1-0.2,0-0.2h0.3
	c0.2,0,0.4-0.1,0.5-0.4c0.1-0.4,0.4-0.9,0.7-1.8l0.8-2.1c0.1-0.3,0.2-0.4,0.1-0.6c0.2-0.1,0.3-0.2,0.4-0.3c0.1,0,0.1,0,0.1,0.1
	c0.1,0.4,0.3,0.7,0.4,1.1l1.1,3.2c0.3,0.7,0.3,0.8,0.7,0.8h0.2c0.1,0.1,0.1,0.2,0,0.2h-0.9h-0.9c-0.1-0.1-0.1-0.2,0-0.2h0.3
	c0.2,0,0.3-0.1,0.3-0.1s-0.1-0.3-0.1-0.4C106.8,38.5,106.3,37.4,106.3,37.4z M104.7,36.7c-0.1,0.2-0.1,0.2,0.2,0.2h0.9
	c0.3,0,0.3-0.1,0.2-0.3l-0.4-1.3c-0.1-0.2-0.1-0.4-0.2-0.5c0,0.1-0.1,0.3-0.2,0.4L104.7,36.7z M109.3,35.2c0-0.8,0-0.9-0.5-1h-0.2
	c-0.1,0-0.1-0.2,0-0.2h1c0,0,0.6,0,0.9,0c0.1,0,0.1,0.2,0,0.2h-0.2c-0.4,0.1-0.5,0.2-0.5,1V38c0,0.5,0,0.7,0.2,0.9
	c0.1,0.1,0.3,0.2,0.9,0.2c0.7,0,0.8-0.1,0.9-0.1c0.2-0.1,0.4-0.4,0.5-0.8c0.1-0.1,0.2,0,0.2,0.1c0,0.1-0.3,0.9-0.3,1.1h-1.9h-0.8h-1
	c-0.1,0-0.1-0.1,0-0.2h0.3c0.4-0.1,0.5-0.2,0.5-1C109.3,38.2,109.3,35.2,109.3,35.2z M115.2,38.1c0,0.8,0,0.9,0.5,1h0.3
	c0.1,0,0.1,0.2,0,0.2h-1c0,0-0.6,0-1.1,0c-0.1,0-0.1-0.2,0-0.2h0.3c0.4-0.1,0.5-0.2,0.5-1v-3.5c0-0.3,0-0.3-0.3-0.3H114
	c-0.3,0-0.8,0-0.9,0.2s-0.3,0.4-0.4,0.6c-0.1,0.1-0.2,0-0.2-0.1c0.1-0.4,0.3-0.9,0.3-1.2h0.1c0.1,0.3,0.3,0.3,0.7,0.3h3.2
	c0.4,0,0.5,0,0.6-0.3h0.1c-0.1,0.3-0.1,0.9-0.1,1.2c-0.1,0.1-0.2,0.1-0.2,0c0-0.2-0.1-0.5-0.2-0.6c-0.2-0.1-0.5-0.2-0.9-0.2h-0.6
	c-0.3,0-0.3,0-0.3,0.3v3.6C115.3,38.1,115.2,38.1,115.2,38.1z M119.9,36.7c-0.4,0-0.4,0-0.4,0.3v1.1c0,0.8,0.1,0.9,0.5,1h0.3
	c0.1,0,0,0.2,0,0.2h-1c0,0-0.6,0-0.9,0c-0.1,0-0.1-0.1,0-0.2h0.1c0.4-0.1,0.4-0.2,0.4-1v-2.8c0-0.8-0.1-0.9-0.4-1h-0.2
	c-0.1,0,0-0.2,0-0.2h1h0.9c0.1,0,0.1,0.2,0,0.2h-0.1c-0.4,0.1-0.5,0.2-0.5,1v0.9c0,0.3,0,0.3,0.4,0.3h2.3c0.4,0,0.4,0,0.4-0.3v-0.9
	c0-0.8,0-0.9-0.5-1H122c-0.1,0-0.1-0.2,0-0.2h0.9c0,0,0.6,0,0.9,0c0.1,0,0.1,0.2,0,0.2h-0.2c-0.4,0.1-0.5,0.2-0.5,1v2.8
	c0,0.8,0,0.9,0.5,1h0.2c0.1,0,0.1,0.2,0,0.2H123c0,0-0.6,0-0.9,0c-0.1,0-0.1-0.1,0-0.2h0.1c0.5-0.1,0.5-0.2,0.5-1v-1.1
	c0-0.3,0-0.3-0.4-0.3H119.9z"/>
</svg>
